<svg width="15" height="15" viewBox="0 0 15 15" xmlns="http://www.w3.org/2000/svg">
<g clip-path="url(#clip0_78_76)">
<path d="M5.05688 7.57687L9.53674e-06 10.7737V4.245L5.05688 7.57687Z" />
<path d="M15 4.245V10.7737L9.94312 7.57687L15 4.245Z" />
<path d="M0.937551 2.34375H14.0625C14.5304 2.34375 14.9016 2.6925 14.9719 3.14156L7.50005 8.06437L0.0281754 3.14156C0.0984879 2.6925 0.469738 2.34375 0.937551 2.34375Z" />
<path d="M5.9156 8.14315L7.24216 9.0169C7.32091 9.06846 7.40997 9.09377 7.49997 9.09377C7.58997 9.09377 7.67903 9.06846 7.75778 9.0169L9.08435 8.14221L14.97 11.865C14.8978 12.3103 14.5284 12.6563 14.0625 12.6563H0.937472C0.471535 12.6563 0.10216 12.3103 0.0299721 11.865L5.9156 8.14315Z" />
</g>
<defs>
<clipPath id="clip0_78_76">
<rect width="15" height="15"  transform="matrix(-1 0 0 1 15 0)"/>
</clipPath>
</defs>
</svg>
