<svg width="16" height="16" viewBox="0 0 16 16" fill="none" xmlns="http://www.w3.org/2000/svg">
<g clip-path="url(#clip0_60_568)">
<path d="M15.1397 1.20476e-06H0.874955C0.623362 -0.000474698 0.392709 0.140075 0.2777 0.363906C0.161104 0.590752 0.181568 0.863919 0.330525 1.07109L5.55655 8.43296C5.55829 8.43549 5.56019 8.43787 5.56194 8.44041C5.75182 8.69676 5.85446 9.00721 5.85509 9.32638V15.3284C5.85398 15.5063 5.92378 15.677 6.0491 15.8031C6.17442 15.9292 6.34479 15.9999 6.52246 15.9999C6.61288 15.9999 6.7022 15.9818 6.78564 15.9473L9.72226 14.8275C9.98543 14.7472 10.1601 14.4989 10.1601 14.1999V9.32638C10.1606 9.00737 10.2634 8.69676 10.4531 8.44041C10.4548 8.43787 10.4567 8.43549 10.4585 8.43296L15.6843 1.07078C15.8333 0.86376 15.8538 0.590752 15.7372 0.363906C15.6222 0.140075 15.3915 -0.000474698 15.1397 1.20476e-06ZM9.79824 7.95928C9.50636 8.35538 9.34852 8.8343 9.34757 9.32638V14.1012L6.6673 15.1232V9.32638C6.66634 8.8343 6.5085 8.35538 6.21646 7.95928L1.14289 0.812205H14.872L9.79824 7.95928Z" fill="#7F8AD9"/>
</g>
<defs>
<clipPath id="clip0_60_568">
<rect width="16" height="16" fill="white"/>
</clipPath>
</defs>
</svg>
