<svg width="30" height="30" viewBox="0 0 30 30" fill="none" xmlns="http://www.w3.org/2000/svg">
<path d="M2.10938 0.585938C1.70548 0.586403 1.31826 0.747057 1.03266 1.03266C0.747057 1.31826 0.586403 1.70548 0.585938 2.10938V6.98355C0.585938 7.07679 0.622977 7.16622 0.688908 7.23215C0.754839 7.29808 0.84426 7.33512 0.9375 7.33512C1.03074 7.33512 1.12016 7.29808 1.18609 7.23215C1.25202 7.16622 1.28906 7.07679 1.28906 6.98355V2.10938C1.2893 1.89189 1.3758 1.68337 1.52958 1.52958C1.68337 1.3758 1.89189 1.2893 2.10938 1.28906H7.39002C7.48326 1.28906 7.57268 1.25202 7.63861 1.18609C7.70454 1.12016 7.74158 1.03074 7.74158 0.9375C7.74158 0.84426 7.70454 0.754839 7.63861 0.688908C7.57268 0.622977 7.48326 0.585938 7.39002 0.585938H2.10938Z" fill="#1A237E"/>
<path d="M29.0625 22.3843C28.9692 22.3843 28.8798 22.4213 28.8139 22.4872C28.748 22.5532 28.7109 22.6426 28.7109 22.7358V27.8906C28.7107 28.1081 28.6242 28.3166 28.4704 28.4704C28.3166 28.6242 28.1081 28.7107 27.8906 28.7109H22.9946C22.9014 28.7109 22.812 28.748 22.746 28.8139C22.6801 28.8798 22.6431 28.9693 22.6431 29.0625C22.6431 29.1557 22.6801 29.2452 22.746 29.3111C22.812 29.377 22.9014 29.4141 22.9946 29.4141H27.8906C28.2945 29.4136 28.6817 29.253 28.9673 28.9674C29.2529 28.6818 29.4136 28.2945 29.414 27.8906V22.7358C29.414 22.6426 29.377 22.5532 29.3111 22.4872C29.2451 22.4213 29.1557 22.3843 29.0625 22.3843Z" fill="#1A237E"/>
<path d="M27.8906 0.585938H23.093C22.9998 0.585938 22.9104 0.622977 22.8444 0.688908C22.7785 0.754839 22.7415 0.84426 22.7415 0.9375C22.7415 1.03074 22.7785 1.12016 22.8444 1.18609C22.9104 1.25202 22.9998 1.28906 23.093 1.28906H27.8906C28.108 1.2893 28.3166 1.3758 28.4703 1.52958C28.6241 1.68337 28.7106 1.89189 28.7109 2.10938V6.7374C28.7109 6.83064 28.7479 6.92006 28.8138 6.98599C28.8798 7.05193 28.9692 7.08896 29.0624 7.08896C29.1557 7.08896 29.2451 7.05193 29.311 6.98599C29.377 6.92006 29.414 6.83064 29.414 6.7374V2.10938C29.4135 1.70548 29.2529 1.31826 28.9673 1.03266C28.6817 0.747057 28.2945 0.586403 27.8906 0.585938Z" fill="#1A237E"/>
<path d="M6.65162 28.7109H2.10938C1.89189 28.7107 1.68337 28.6242 1.52958 28.4704C1.3758 28.3166 1.2893 28.1081 1.28906 27.8906V23.3758C1.28906 23.2826 1.25202 23.1931 1.18609 23.1272C1.12016 23.0613 1.03074 23.0242 0.9375 23.0242C0.84426 23.0242 0.754839 23.0613 0.688908 23.1272C0.622977 23.1931 0.585938 23.2826 0.585938 23.3758V27.8906C0.586387 28.2945 0.747036 28.6818 1.03264 28.9674C1.31824 29.253 1.70547 29.4136 2.10938 29.4141H6.65162C6.74486 29.4141 6.83428 29.377 6.90021 29.3111C6.96614 29.2452 7.00318 29.1557 7.00318 29.0625C7.00318 28.9693 6.96614 28.8798 6.90021 28.8139C6.83428 28.748 6.74486 28.7109 6.65162 28.7109Z" fill="#1A237E"/>
<path d="M24.3344 23.0164V6.98377C24.334 6.57986 24.1733 6.19263 23.8877 5.90703C23.6021 5.62143 23.2149 5.46078 22.811 5.46033H7.18909C6.78518 5.46078 6.39795 5.62143 6.11235 5.90703C5.82675 6.19263 5.6661 6.57986 5.66565 6.98377V23.0164C5.66611 23.4203 5.82677 23.8075 6.11237 24.0931C6.39797 24.3787 6.78519 24.5393 7.18909 24.5398H22.811C23.2149 24.5393 23.6021 24.3787 23.8877 24.0931C24.1733 23.8075 24.334 23.4203 24.3344 23.0164ZM6.36877 23.0164V6.98377C6.36901 6.76628 6.45551 6.55776 6.6093 6.40397C6.76308 6.25019 6.9716 6.16369 7.18909 6.16345H22.811C23.0285 6.16369 23.237 6.25019 23.3908 6.40397C23.5446 6.55776 23.6311 6.76628 23.6313 6.98377V23.0164C23.6311 23.2339 23.5446 23.4424 23.3908 23.5961C23.237 23.7499 23.0285 23.8364 22.811 23.8367H7.18909C6.9716 23.8364 6.7631 23.7499 6.60931 23.5961C6.45553 23.4424 6.36902 23.2339 6.36877 23.0164Z" fill="#1A237E"/>
</svg>
