<svg width="18" height="18" viewBox="0 0 18 18"  xmlns="http://www.w3.org/2000/svg">
<g clip-path="url(#clip0_33_17)">
<path d="M17.55 7.79399C17.5494 7.79358 17.549 7.79303 17.5486 7.79262L10.206 0.450303C9.89304 0.137192 9.47693 -0.0351562 9.03432 -0.0351562C8.59171 -0.0351562 8.1756 0.137192 7.86249 0.450303L0.523747 7.78891C0.521275 7.79138 0.518666 7.79399 0.516331 7.79646C-0.12637 8.44287 -0.125272 9.49166 0.51949 10.1364C0.814061 10.4311 1.20298 10.6017 1.61895 10.6197C1.63598 10.6213 1.65301 10.6222 1.67017 10.6222H1.96268V16.0255C1.96268 17.0949 2.8328 17.9649 3.90219 17.9649H6.77484C7.06612 17.9649 7.30219 17.7287 7.30219 17.4375V13.2012C7.30219 12.7133 7.69921 12.3164 8.18714 12.3164H9.88151C10.3694 12.3164 10.7663 12.7133 10.7663 13.2012V17.4375C10.7663 17.7287 11.0024 17.9649 11.2937 17.9649H14.1663C15.2358 17.9649 16.1058 17.0949 16.1058 16.0255V10.6222H16.3772C16.8197 10.6222 17.2358 10.4498 17.549 10.1366C18.1945 9.49083 18.1947 8.44013 17.55 7.79399ZM16.8032 9.39086C16.6893 9.5047 16.538 9.56746 16.3772 9.56746H15.5785C15.2872 9.56746 15.0511 9.80353 15.0511 10.0948V16.0255C15.0511 16.5133 14.6543 16.9102 14.1663 16.9102H11.821V13.2012C11.821 12.1318 10.951 11.2617 9.88151 11.2617H8.18714C7.11762 11.2617 6.2475 12.1318 6.2475 13.2012V16.9102H3.90219C3.41439 16.9102 3.01737 16.5133 3.01737 16.0255V10.0948C3.01737 9.80353 2.7813 9.56746 2.49003 9.56746H1.70505C1.69681 9.56691 1.68871 9.5665 1.68033 9.56636C1.52323 9.56362 1.37588 9.50127 1.26546 9.39072C1.03063 9.15589 1.03063 8.7737 1.26546 8.53873C1.2656 8.53873 1.2656 8.53859 1.26574 8.53845L1.26615 8.53804L8.60846 1.196C8.72217 1.08216 8.87337 1.01953 9.03432 1.01953C9.19513 1.01953 9.34633 1.08216 9.46018 1.196L16.8008 8.53653C16.8019 8.53763 16.8032 8.53873 16.8043 8.53983C17.0379 8.77507 17.0375 9.15644 16.8032 9.39086Z"/>
</g>
<defs>
<clipPath id="clip0_33_17">
<rect width="18" height="18"/>
</clipPath>
</defs>
</svg>
