<svg width="15" height="15" viewBox="0 0 15 15" fill="none" xmlns="http://www.w3.org/2000/svg">
<g clip-path="url(#clip0_78_93)">
<path d="M11.6164 2.73792C11.46 2.73792 11.3035 2.79746 11.1845 2.91653C10.9463 3.15467 10.9463 3.54221 11.1845 3.78035C11.4226 4.01849 11.8101 4.01849 12.0483 3.78035C12.2864 3.54221 12.2864 3.15467 12.0483 2.91653C11.9292 2.79743 11.7728 2.73792 11.6164 2.73792Z" fill="white"/>
<path d="M13.7271 1.23766C12.929 0.439526 11.8678 0 10.7391 0C9.61037 0 8.54922 0.439526 7.75111 1.23766C7.06793 1.92081 6.64939 2.78826 6.54069 3.7462C6.43959 4.63712 6.62668 5.54644 7.06828 6.3202L0.0354004 13.3531L1.61172 14.9294L2.43533 14.1058L3.32959 15L4.80305 13.5266L3.90878 12.6323L5.01238 11.5287L5.90664 12.423L7.3801 10.9495L6.48583 10.0553L8.64458 7.89652C9.41836 8.3381 10.3275 8.52513 11.2186 8.42411C12.1765 8.31539 13.044 7.89684 13.7271 7.2137C14.5253 6.41556 14.9648 5.3544 14.9648 4.2257C14.9648 3.09696 14.5252 2.03577 13.7271 1.23766ZM12.6706 4.40267C12.38 4.69333 11.9981 4.83868 11.6163 4.83868C11.2345 4.83868 10.8528 4.69333 10.5621 4.40267C9.98074 3.82134 9.98074 2.87547 10.5621 2.29413C11.1434 1.7128 12.0893 1.7128 12.6706 2.29413C13.2519 2.87547 13.2519 3.82137 12.6706 4.40267Z" fill="white"/>
</g>
<defs>
<clipPath id="clip0_78_93">
<rect width="15" height="15" fill="white"/>
</clipPath>
</defs>
</svg>
