<svg width="18" height="14" viewBox="0 0 18 14" fill="none" xmlns="http://www.w3.org/2000/svg">
<path d="M16.2439 0.326843H1.7561C0.786642 0.327872 0.00102896 1.11349 0 2.08294V11.9972C0.00102896 12.9665 0.786642 13.7521 1.7561 13.7533H16.2439C17.2134 13.7521 17.999 12.9665 18 11.9972V2.08294C17.999 1.11349 17.2134 0.327872 16.2439 0.326843ZM1.7561 1.20489H16.2439C16.4773 1.20472 16.7011 1.29784 16.8656 1.4635L9.39478 6.33942C9.09878 6.53372 8.71498 6.53081 8.42207 6.33205L1.15741 1.44121C1.31965 1.28927 1.53367 1.20472 1.7561 1.20489ZM17.122 11.9972C17.1214 12.4818 16.7285 12.8747 16.2439 12.8752H1.7561C1.27146 12.8747 0.878563 12.4818 0.878049 11.9972V2.31171L7.93108 7.06021C8.51673 7.45705 9.28365 7.4627 9.87513 7.07461L17.122 2.34464V11.9972Z" fill="black"/>
</svg>
