<svg width="17" height="17" viewBox="0 0 17 17" xmlns="http://www.w3.org/2000/svg">
<g clip-path="url(#clip0_34_40)">
<path d="M14.8099 4.92899H11.7921V3.20704C11.7921 1.43578 10.3562 0 8.58509 0C6.81383 0 5.37805 1.43578 5.37805 3.20704V4.92899H2.17102C1.96778 4.92899 1.80305 5.09386 1.80305 5.29696V13.6884C1.80507 15.5164 3.28655 16.9979 5.11473 17.0001H11.8661C13.6943 16.9979 15.1758 15.5164 15.1778 13.6884V5.29696C15.1778 5.09386 15.0131 4.92899 14.8099 4.92899ZM6.11398 3.20704C6.11053 2.32191 6.58083 1.50262 7.3468 1.05905C8.11277 0.615477 9.0574 0.615477 9.82337 1.05905C10.5893 1.50262 11.0596 2.32191 11.0562 3.20704V4.92899H6.11398V3.20704ZM14.4419 13.6884C14.4402 15.1102 13.288 16.2624 11.8661 16.2642H5.11473C3.69289 16.2624 2.54056 15.1102 2.53898 13.6884V5.66492H5.37805V9.7867C5.37805 9.98979 5.54277 10.1547 5.74602 10.1547C5.94926 10.1547 6.11398 9.98979 6.11398 9.7867V5.66492H11.0562V9.7867C11.0562 9.98979 11.2209 10.1547 11.4242 10.1547C11.6274 10.1547 11.7921 9.98979 11.7921 9.7867V5.66492H14.4419V13.6884Z" />
</g>
<defs>
<clipPath id="clip0_34_40">
<rect width="17" height="17" />
</clipPath>
</defs>
</svg>
