<svg width="18" height="18" viewBox="0 0 18 18" xmlns="http://www.w3.org/2000/svg">
<path d="M17.5853 0.414749H13.7437C13.5146 0.414749 13.3289 0.600413 13.3289 0.829496V1.97669H10.3239C9.17918 1.97799 8.25151 2.90566 8.25022 4.05042V8.56776H4.23041V6.63562C4.23041 6.40654 4.04475 6.22088 3.81567 6.22088H0.414747C0.185664 6.22088 0 6.40654 0 6.63562V11.4441C0 11.6732 0.185664 11.8588 0.414747 11.8588H3.81567C4.04475 11.8588 4.23041 11.6732 4.23041 11.4441V9.39725H8.25022V14.0295C8.25151 15.1742 9.17918 16.1019 10.3239 16.1032H13.3289V17.2502C13.3289 17.4793 13.5146 17.665 13.7437 17.665H17.5853C17.8143 17.665 18 17.4793 18 17.2502V14.1267C18 13.8976 17.8143 13.7119 17.5853 13.7119H13.7437C13.5146 13.7119 13.3289 13.8976 13.3289 14.1267V15.2737H10.3239C9.63702 15.2729 9.08052 14.7164 9.07971 14.0295V9.39725H13.3289V10.5443C13.3289 10.7734 13.5146 10.959 13.7437 10.959H17.5853C17.8143 10.959 18 10.7734 18 10.5443V7.42072C18 7.19164 17.8143 7.00598 17.5853 7.00598H13.7437C13.5146 7.00598 13.3289 7.19164 13.3289 7.42072V8.56776H9.07971V4.05042C9.08052 3.36366 9.63702 2.80699 10.3239 2.80618H13.3289V3.95322C13.3289 4.1823 13.5146 4.36796 13.7437 4.36796H17.5853C17.8143 4.36796 18 4.1823 18 3.95322V0.829496C18 0.600413 17.8143 0.414749 17.5853 0.414749ZM3.40092 11.0293H0.829493V7.05037H3.40092V11.0293ZM14.1584 14.5414H17.1705V16.8355H14.1584V14.5414ZM14.1584 7.83547H17.1705V10.1295H14.1584V7.83547ZM17.1705 3.53831H14.1584V1.24424H17.1705V3.53831Z" />
</svg>
