<svg width="18" height="18" viewBox="0 0 18 18" xmlns="http://www.w3.org/2000/svg">
<path d="M13.6985 2.87319H12.3023C12.1607 2.47426 11.8582 2.15289 11.4686 1.98725L10.927 1.75663C10.735 1.67507 10.6104 1.48663 10.6107 1.27806C10.6098 0.572566 10.0381 0.00074013 9.33247 0H8.68603C7.98039 0.00074013 7.40872 0.572566 7.40798 1.27806C7.40812 1.48663 7.28363 1.67507 7.09164 1.75663L6.54987 1.98725C6.16026 2.15289 5.85784 2.47426 5.71618 2.87319H4.32C3.27405 2.87438 2.42645 3.72197 2.42526 4.76793V16.1053C2.42645 17.1512 3.27405 17.9988 4.32 18H13.6984C14.7443 17.9988 15.5919 17.1512 15.5931 16.1053V4.76793C15.5921 3.72197 14.7445 2.87438 13.6985 2.87319ZM6.38585 3.38181C6.38556 3.07791 6.56704 2.80332 6.84681 2.68461L7.38873 2.45398C7.86049 2.2537 8.16661 1.79053 8.16602 1.27806C8.16631 0.991036 8.39901 0.758339 8.68603 0.757895H9.33261C9.61978 0.758191 9.85248 0.990888 9.85278 1.27806C9.85219 1.79053 10.1585 2.25355 10.6301 2.45398L11.172 2.68461C11.4518 2.80332 11.6332 3.07791 11.6329 3.38181V3.94401H6.38585V3.38181ZM14.8353 16.1053C14.8346 16.7329 14.326 17.2414 13.6985 17.2421H4.32015C3.69252 17.2414 3.1839 16.7329 3.18331 16.1053V4.76793C3.1839 4.1403 3.69252 3.63183 4.32015 3.63109H5.62796V4.32296C5.62796 4.53227 5.7976 4.70191 6.00691 4.70191H12.0117C12.2209 4.70191 12.3907 4.53227 12.3907 4.32296V3.63109H13.6985C14.326 3.63183 14.8346 4.1403 14.8353 4.76793V16.1053Z" />
<path d="M13.0125 10.8583H5.0061C4.79679 10.8583 4.62715 11.028 4.62715 11.2373C4.62715 11.4466 4.79679 11.6162 5.0061 11.6162H13.0125C13.2217 11.6162 13.3915 11.4466 13.3915 11.2373C13.3915 11.028 13.2217 10.8583 13.0125 10.8583Z" />
<path d="M5.0061 8.63511H8.31552C8.52483 8.63511 8.69447 8.46548 8.69447 8.25617C8.69447 8.04686 8.52483 7.87722 8.31552 7.87722H5.0061C4.79679 7.87722 4.62715 8.04686 4.62715 8.25617C4.62715 8.46548 4.79679 8.63511 5.0061 8.63511Z" />
<path d="M13.0125 13.6392H5.0061C4.79679 13.6392 4.62715 13.8088 4.62715 14.0181C4.62715 14.2274 4.79679 14.397 5.0061 14.397H13.0125C13.2217 14.397 13.3915 14.2274 13.3915 14.0181C13.3915 13.8088 13.2217 13.6392 13.0125 13.6392Z" />
</svg>
