<svg width="17" height="17" viewBox="0 0 17 17" xmlns="http://www.w3.org/2000/svg">
<g clip-path="url(#clip0_34_26)">
<path d="M8.49996 0C3.81303 0 0 3.81303 0 8.49996C0 13.1869 3.81303 17.0001 8.49996 17.0001C13.1869 17.0001 17.0001 13.1869 17.0001 8.49996C17.0001 3.81303 13.1869 0 8.49996 0V0ZM8.49996 16.3199C4.18795 16.3199 0.679979 12.8121 0.679979 8.49996C0.679979 4.18795 4.18795 0.679979 8.49996 0.679979C12.8121 0.679979 16.3199 4.18795 16.3199 8.49996C16.3199 12.8121 12.8121 16.3199 8.49996 16.3199Z" />
<path d="M8.84002 2.43912C8.84002 2.25115 8.68793 2.09906 8.49996 2.09906C4.97049 2.09906 2.09906 4.97049 2.09906 8.49996C2.09906 8.68793 2.25115 8.84002 2.43912 8.84002C2.62709 8.84002 2.77904 8.68793 2.77904 8.49996C2.77904 5.34541 5.34541 2.77904 8.49996 2.77904C8.68793 2.77904 8.84002 2.62709 8.84002 2.43912Z" />
<path d="M8.49994 6.71698C7.5168 6.71698 6.71698 7.5168 6.71698 8.49994C6.71698 9.48309 7.5168 10.2831 8.49994 10.2831C9.48309 10.2831 10.2831 9.48309 10.2831 8.49994C10.2831 7.5168 9.48309 6.71698 8.49994 6.71698ZM8.49994 9.60293C7.89173 9.60293 7.39696 9.10831 7.39696 8.49994C7.39696 7.89173 7.89173 7.39696 8.49994 7.39696C9.10831 7.39696 9.60293 7.89173 9.60293 8.49994C9.60293 9.10831 9.10831 9.60293 8.49994 9.60293Z" />
</g>
<defs>
<clipPath id="clip0_34_26">
<rect width="17" height="17" />
</clipPath>
</defs>
</svg>
