<svg width="18" height="18" viewBox="0 0 18 18" xmlns="http://www.w3.org/2000/svg">
<g clip-path="url(#clip0_34_52)">
<path d="M9.00664 -0.000279908C5.36909 -0.000279908 2.08978 2.19091 0.697816 5.55157C-0.694152 8.91207 0.0751748 12.7803 2.64725 15.3525C4.91763 17.6323 8.233 18.5255 11.3414 17.6948C14.4499 16.8643 16.8777 14.4363 17.7084 11.3281C18.5389 8.21963 17.6457 4.90427 15.3659 2.63389C13.683 0.941771 11.393 -0.00675129 9.00664 -0.000279908ZM4.14507 15.5978V14.8195C4.14507 12.1347 6.32162 9.95797 9.00664 9.95797C11.6917 9.95797 13.8682 12.1347 13.8682 14.8195V15.5978C10.9781 17.7309 7.03517 17.7309 4.14507 15.5978ZM14.6571 14.9365V14.8195C14.6571 11.704 12.1223 9.16923 9.00664 9.16923C5.89096 9.16923 3.35618 11.704 3.35618 14.8195V14.9365C1.72461 13.3903 0.800896 11.241 0.802129 8.99312C0.802129 4.46915 4.48266 0.788615 9.00664 0.788615C13.5306 0.788615 17.2111 4.46915 17.2111 8.99312C17.2122 11.241 16.2887 13.3903 14.6569 14.9365H14.6571Z" />
<path d="M9.0245 2.64865C7.34039 2.64865 5.97508 4.01396 5.97508 5.69807C5.97508 7.38217 7.34039 8.74748 9.0245 8.74748C10.7086 8.74748 12.0739 7.38217 12.0739 5.69807C12.0719 4.01473 10.7078 2.65065 9.0245 2.64865ZM9.0245 7.95859C7.77614 7.95859 6.76398 6.94643 6.76398 5.69807C6.76398 4.44955 7.77614 3.43755 9.0245 3.43755C10.273 3.43755 11.285 4.44955 11.285 5.69807C11.2836 6.94597 10.2724 7.9572 9.0245 7.95859Z" />
</g>
<defs>
<clipPath id="clip0_34_52">
<rect width="18" height="18" />
</clipPath>
</defs>
</svg>
